HIERARCHY
ROOT Hips
{
	OFFSET 0.00000 0.00000 0.00000
	CHANNELS 6 Xposition Yposition Zposition Yrotation Zrotation Xrotation 
	JOINT Lumbar
	{
		OFFSET 0 0 0
		CHANNELS 3 Zrotation Xrotation Yrotation
		JOINT Neck
		{
			OFFSET 0.00 0.2701 0.00
			CHANNELS 3 Zrotation Xrotation Yrotation
			End Site
			{
				OFFSET 0.00 0.1379 0.00
			}
		}
		JOINT RightShoulder
		{
			OFFSET 0.0119 0.2289 0.1181
			CHANNELS 3 Zrotation Xrotation Yrotation
			JOINT RightElbow
			{
				OFFSET 0.00 -0.1475 0.00
				CHANNELS 2 Zrotation Yrotation
				JOINT RightWrist
				{
					OFFSET 0.00 -0.1605 0.00
					CHANNELS 2 Zrotation Xrotation
					End Site
					{
						OFFSET 0.0040 -0.1068 0.0006
					}
				}
			}
		}
		JOINT LeftShoulder
		{
			OFFSET 0.0119 0.2289 -0.1181
			CHANNELS 3 Zrotation Xrotation Yrotation
			JOINT LeftElbow
			{
				OFFSET 0.00 -0.1475 0.00
				CHANNELS 2 Zrotation Yrotation
				JOINT LeftWrist
				{
					OFFSET 0.00 -0.1605 0.00
					CHANNELS 2 Zrotation Xrotation
					End Site
					{
						OFFSET 0.0040 -0.1068 -0.0006
					}
				}
			}
		}
	}
	JOINT RightHip
	{
		OFFSET 0.0316 -0.0424 0.0458
		CHANNELS 3 Zrotation Xrotation Yrotation
		JOINT RightKnee
		{
			OFFSET 0.00 -0.2438 0.00
			CHANNELS 1 Zrotation
			JOINT RightAnkle
			{
				OFFSET 0.00 -0.2449 0.00
				CHANNELS 3 Zrotation Xrotation Yrotation
				End Site
				{
					OFFSET 0.1237 -0.0542 0.0051
				}
			}
		}
	}
	JOINT LeftHip
	{
		OFFSET 0.0316 -0.0424 -0.0458
		CHANNELS 3 Zrotation Xrotation Yrotation
		JOINT LeftKnee
		{
			OFFSET 0.00 -0.2438 0.00
			CHANNELS 1 Zrotation
			JOINT LeftAnkle
			{
				OFFSET 0.00 -0.2449 0.00
				CHANNELS 3 Zrotation Xrotation Yrotation
				End Site
				{
					OFFSET 0.1237 -0.0542 -0.0051
				}
			}
		}
	}
}
MOTION
Frames: 19
Frame Time: 0.02
-0.48164 -0.05978 -0.95962 1272.39356 -42.06188 1.26713 44.80649 0.1592 5.52489 -13.15558 2.66984 -2.11994 -23.21873 -5.99789 -5.39161 44.20161 77.39843 -6.4574 0.69007 -39.09217 -0.63806 29.23077 40.11866 -55.18579 -12.04184 -6.03856 -1.36462 6.72562 23.13324 -1.24042 -21.88626 -30.44401 -17.87357 48.45498 6.04443 2.35417 -27.49222 -7.59409 2.59432 3.54981
-0.4919 -0.06274 -0.95409 1272.37418 -40.99311 1.5458 44.22664 -0.10688 5.04676 -13.24486 2.67689 -2.11994 -24.07064 -7.01789 -3.8352 43.76085 78.18212 -5.60789 0.2824 -37.79406 0.18761 27.99877 39.71984 -58.96904 -10.91444 -5.25973 0.80457 5.72219 19.48343 -8.30235 -21.26609 -27.25717 -16.24737 45.66438 5.72211 3.72478 -27.35916 -7.3582 2.51422 3.49853
-0.50112 -0.06609 -0.94896 1272.49946 -39.6257 1.79337 43.24764 -0.36251 4.29638 -13.30463 2.69337 -2.11994 -24.72016 -8.22002 -1.99002 43.06611 79.13739 -4.56143 -0.27304 -36.33802 1.21779 26.14558 39.13066 -64.27578 -9.27653 -4.25558 3.88664 4.79618 11.4653 -17.30398 -19.14436 -19.59663 -12.421 42.5668 5.47488 5.41217 -27.13042 -7.10377 2.40013 3.42912
-0.5108 -0.06921 -0.94369 1272.57193 -38.4092 2.03612 42.46096 -0.60814 3.6388 -13.3863 2.69987 -2.11994 -25.44915 -9.26139 -0.46962 42.4963 79.76564 -3.71608 -0.69181 -34.9489 2.13417 24.62666 38.64118 -68.73566 -7.91713 -3.38161 6.52031 3.86205 5.68057 -25.25454 -17.7639 -14.26617 -9.74116 39.63172 5.20964 6.90036 -26.93527 -6.86456 2.30325 3.36922
-0.52055 -0.07255 -0.9382 1272.59072 -37.12251 2.36157 41.62891 -0.91627 3.11309 -13.43632 2.72933 -2.11994 -26.24149 -10.62783 1.84341 41.88182 81.38826 -2.41939 -1.39246 -33.57241 3.1407 22.8873 38.09872 -73.85799 -6.36151 -2.38235 9.2985 2.80446 -1.07082 -33.94978 -16.15925 -7.79243 -6.49613 36.58446 4.87222 8.62336 -26.77581 -6.59567 2.20052 3.30468
-0.5299 -0.07551 -0.93329 1272.75755 -35.91628 2.50663 40.79732 -1.09185 2.24846 -13.54257 2.71448 -2.11994 -26.85154 -11.3688 2.6048 41.30173 81.05051 -1.99067 -1.55422 -32.13587 4.00857 21.45641 37.62275 -77.96483 -5.09034 -1.59286 11.9956 2.02596 -6.88354 -41.53324 -14.65482 -2.58763 -3.88143 33.70787 4.70602 9.93288 -26.52109 -6.38464 2.10114 3.24517
-0.53841 -0.07734 -0.92984 1273.27006 -34.97057 2.15835 40.05185 -0.90162 0.50458 -13.82461 2.56422 -2.11994 -26.98565 -10.25308 -1.25632 40.87914 74.65432 -4.22921 -0.08429 -30.5632 4.42631 21.0741 37.34659 -78.81332 -4.7675 -1.44732 14.19205 1.99914 -8.95764 -45.69485 -13.80367 -2.07293 -3.59051 31.32735 4.97591 10.01044 -26.033 -6.33732 2.02103 3.20479
-0.54654 -0.07877 -0.92699 1273.93095 -34.1233 1.63022 39.32288 -0.57901 -1.56836 -14.16124 2.371 -2.11994 -26.9456 -8.51615 -6.64096 40.50015 66.38658 -7.30862 1.91268 -28.93842 4.6998 21.01662 37.14808 -78.59878 -4.74268 -1.52016 16.28355 2.25176 -9.95987 -48.64296 -13.10025 -2.95789 -3.99432 29.14016 5.41878 9.66286 -25.45199 -6.34907 1.94499 3.16987
-0.55483 -0.08036 -0.9239 1274.54199 -33.25381 1.18518 38.59427 -0.31805 -3.48581 -14.46391 2.20461 -2.11994 -26.99807 -7.11992 -11.1504 40.10205 59.37867 -9.85484 3.59781 -27.34411 5.05046 20.781 36.93411 -78.92333 -4.55604 -1.48802 18.45782 2.37788 -11.51639 -52.06665 -12.31969 -3.12766 -4.04358 26.89886 5.79552 9.51792 -24.91053 -6.33436 1.86567 3.13175
-0.56317 -0.08202 -0.92069 1275.08514 -32.27773 0.73122 37.81799 -0.04916 -5.44228 -14.8048 2.00797 -2.11994 -26.98745 -5.48701 -16.41376 39.69351 50.67186 -13.02376 5.58363 -25.71469 5.36058 20.64998 36.6329 -79.06982 -4.4598 -1.47204 20.51876 2.50474 -12.94666 -55.88835 -11.52894 -3.47784 -4.18118 24.50384 6.12434 9.34453 -24.37745 -6.31753 1.79096 3.09589
-0.57131 -0.08346 -0.91785 1275.8015 -31.55228 0.25623 37.15089 0.23292 -7.38649 -15.07875 1.86369 -2.11994 -27.06921 -4.19289 -20.48225 39.31856 45.02794 -15.10815 7.06966 -24.14913 5.71662 20.38947 36.53049 -79.30876 -4.25659 -1.47727 22.77544 2.69509 -14.32081 -58.55553 -10.81452 -3.84173 -4.32791 22.47936 6.59033 9.12497 -23.80545 -6.31917 1.70838 3.05704
-0.57902 -0.08433 -0.91588 1276.97262 -31.48476 -0.25584 36.77673 0.5328 -9.26237 -15.16029 1.87733 -2.11994 -27.45185 -4.02267 -20.79339 39.04294 48.54903 -13.90471 7.05313 -22.76585 6.2467 19.66865 36.9912 -80.10718 -3.65399 -1.48867 25.62176 2.99561 -15.85249 -58.42422 -10.27657 -3.92581 -4.34162 21.42849 7.41631 8.88176 -23.15417 -6.35904 1.60049 3.00729
-0.58654 -0.085 -0.91424 1278.31001 -31.66928 -0.77825 36.51488 0.83879 -11.10416 -15.17171 1.94455 -2.11994 -27.93424 -4.20758 -19.86604 38.79773 55.16919 -11.59815 6.5159 -21.45135 6.8243 18.81403 37.64378 -81.01966 -2.94149 -1.51486 28.65842 3.34942 -17.33397 -57.14699 -9.81756 -3.99318 -4.34937 20.74517 8.36956 8.60442 -22.46567 -6.41505 1.4853 2.9547
-0.59414 -0.0858 -0.91245 1279.56191 -31.7467 -1.28091 36.20641 1.13291 -12.93053 -15.21149 1.98539 -2.11994 -28.36938 -4.20455 -19.56393 38.52857 60.20678 -9.85486 6.21241 -20.10988 7.37176 18.03882 38.188 -81.8429 -2.30269 -1.53474 31.5895 3.67641 -18.78313 -56.32225 -9.32857 -4.074 -4.36294 19.89751 9.24876 8.3422 -21.79208 -6.46284 1.37519 2.90434
-0.60174 -0.08643 -0.91069 1280.86017 -31.79658 -1.8541 35.87897 1.47 -14.90083 -15.26769 2.03345 -2.11994 -28.80487 -4.29022 -19.05442 38.30345 65.91672 -7.87905 5.93562 -18.74587 7.95201 17.1951 38.82518 -82.78677 -1.57504 -1.56026 34.60321 4.02424 -20.42871 -55.73972 -8.8185 -4.17527 -4.38575 19.04782 10.20261 8.07014 -21.12672 -6.51709 1.25734 2.8501
-0.60932 -0.08737 -0.90892 1282.10045 -31.96162 -2.27963 35.61835 1.71738 -16.55669 -15.2727 2.07959 -2.11994 -29.26757 -4.28585 -18.65909 37.9934 70.98385 -6.11485 5.47748 -17.44897 8.47508 16.45929 39.31206 -83.52162 -1.00081 -1.57484 37.4848 4.33757 -21.66883 -54.40238 -8.36986 -4.21331 -4.37969 18.28366 11.0288 7.81202 -20.43277 -6.56011 1.15436 2.80335
-0.61681 -0.08915 -0.90708 1283.13032 -32.39027 -2.30147 35.50893 1.7142 -17.36943 -15.14998 2.10923 -2.11994 -29.76434 -3.92899 -18.90917 37.44018 73.55063 -5.19922 4.602 -16.29595 8.84619 16.04366 39.34831 -83.64093 -0.89154 -1.55401 40.00604 4.54272 -21.7806 -51.20987 -8.06924 -4.07231 -4.29055 17.69549 11.47213 7.63383 -19.702 -6.57093 1.09004 2.77665
-0.6243 -0.09124 -0.9052 1284.09724 -32.9243 -2.17231 35.4642 1.62017 -17.86212 -14.97851 2.13511 -2.11994 -30.28828 -3.47568 -19.30486 36.80022 75.36718 -4.53144 3.56726 -15.21406 9.15547 15.74156 39.22472 -83.553 -0.93639 -1.5209 42.37632 4.71042 -21.49447 -47.31328 -7.82783 -3.86342 -4.17027 17.17422 11.78203 7.46511 -18.93791 -6.56615 1.04205 2.75774
-0.63185 -0.09321 -0.9033 1285.09842 -33.40483 -2.10692 35.39325 1.56784 -18.48854 -14.83148 2.16144 -2.11994 -30.81259 -3.08058 -19.60758 36.20087 77.51461 -3.74965 2.63196 -14.1146 9.48236 15.39294 39.16585 -83.57208 -0.89967 -1.49332 44.78558 4.89303 -21.40974 -43.77784 -7.55991 -3.68444 -4.06404 16.60188 12.15102 7.27462 -18.16806 -6.57013 0.98883 2.73622
